<svg width="19" height="19" viewBox="0 0 19 19" fill="none" xmlns="http://www.w3.org/2000/svg">
<path fill-rule="evenodd" clip-rule="evenodd" d="M17.8425 0.842361C18.2521 1.25193 18.2283 1.93972 17.7894 2.37858L10.6378 9.53025L17.3121 16.2046C17.7217 16.6142 17.698 17.302 17.2591 17.7408C16.8202 18.1797 16.1325 18.2034 15.7229 17.7939L9.04853 11.1195L1.89687 18.2712C1.458 18.71 0.770213 18.7338 0.360641 18.3242C-0.0489309 17.9146 -0.025186 17.2268 0.413675 16.788L7.56534 9.63632L0.890982 2.96196C0.48141 2.55239 0.505154 1.8646 0.944016 1.42574C1.38288 0.986873 2.07067 0.96313 2.48024 1.3727L9.1546 8.04706L16.3063 0.895395C16.7451 0.456533 17.4329 0.432789 17.8425 0.842361Z" fill="#FD7D00"/>
</svg>
