<svg width="20" height="20" viewBox="0 0 20 20" fill="none" xmlns="http://www.w3.org/2000/svg">
<path fill-rule="evenodd" clip-rule="evenodd" d="M9.99998 0.833252C10.4602 0.833252 10.8333 1.20635 10.8333 1.66659V9.16658H18.3333C18.7935 9.16658 19.1666 9.53968 19.1666 9.99992C19.1666 10.4602 18.7935 10.8333 18.3333 10.8333H10.8333V18.3333C10.8333 18.7935 10.4602 19.1666 9.99998 19.1666C9.53974 19.1666 9.16665 18.7935 9.16665 18.3333V10.8333H1.66665C1.20641 10.8333 0.833313 10.4602 0.833313 9.99992C0.833313 9.53968 1.20641 9.16658 1.66665 9.16658H9.16665V1.66659C9.16665 1.20635 9.53974 0.833252 9.99998 0.833252Z" fill="#FD7D00"/>
</svg>
